{"title":"Dalziel &amp; Pascoe S09","uid":15554598,"size":3061717011,"categoryP":"video","categoryS":"tv_shows","magnet":"?xt=urn:btih:950f1ab5009a505b6e5be4671ec71424c62673d2&amp;dn=Dalziel+%26amp%3B+Pascoe+S09&amp;tr=udp%3A%2F%2Ftracker.leechers-paradise.org%3A6969&amp;tr=udp%3A%2F%2Fzer0day.ch%3A1337&amp;tr=udp%3A%2F%2Fopen.demonii.com%3A1337&amp;tr=udp%3A%2F%2Ftracker.coppersurfer.tk%3A6969&amp;tr=udp%3A%2F%2Fexodus.desync.com%3A6969","seeders":2,"leechers":1,"uploader":"RedBaron58","files":4,"time":1471052344,"description":"Dalziel and Pascoe S09 DVDrip x264 mp4\r\n  \nhttp://www.imdb.com/title/tt0147760/\r\n\r\nThank you for your kind comments and feedback on my other torrents, your feedback is welcome.\r\n\r\nAbout the Series:\r\nThe series is primarily set in Yorkshire, and follows the work of two detectives that are \r\nthrown together as partners.\r\nEpisodes in this series are divided on on the DVDs into part 1 and part 2 but I have encoded\r\nthese together to give the original episode as broadcast, so don't be supprised at credits\r\nat 45 minutes in, as the whole episode is there and all episodes are approx 90 minutes. \r\n\r\nEpisode 1 &quot;Heads You Lose&quot;\r\nWhen body parts and medical waste are found in Wetherton lake, Dalziel and DC Lateef \r\ninvestigate the disappearance of missing nurse Leanne Proctor, last seen three days ago \r\nby her flat mates.\r\n\r\nEpisode 2 &quot;Dead Meat&quot;\r\nWhen animal activist Robin Chanellor is found savaged to death inside the tiger cage at \r\nLatimer's Private Zoo, Dalziel suspects someone is responsible for murder.\r\n\r\nEpisode 3 &quot;The Dig&quot;\r\nAn archaeological dig on the proposed site of a motorway bypass reveals the remains \r\nof a six-month-old body buried beneath the surface.\r\n\r\nEpisode 4 &quot;Dust Thou Art&quot;\r\nWhen student Lisa Johnstone is kidnapped in broad daylight, PC Jackson finds herself \r\nat the mercy of two local thugs after trying to intervene, ending with herself being \r\nkidnapped too.\r\n\r\nTechnical: (All episodes are encoded to the same settings)\r\n\r\nGeneral\r\nComplete name                            : I:Dalziel &amp; Pascoe S09Dalziel Pascoe S09E01 - Heads you Lose x264 RB58.mp4\r\nFormat                                   : MPEG-4\r\nFormat profile                           : Base Media / Version 2\r\nCodec ID                                 : mp42\r\nFile size                                : 726 MiB\r\nDuration                                 : 1h 41mn\r\nOverall bit rate mode                    : Variable\r\nOverall bit rate                         : 1 000 Kbps\r\nEncoded date                             : UTC 2016-08-06 16:59:59\r\nTagged date                              : UTC 2016-08-06 17:03:30\r\nWriting application                      : HandBrake 0.9.8 2012071700\r\n\r\nVideo\r\nID                                       : 1\r\nFormat                                   : AVC\r\nFormat/Info                              : Advanced Video Codec\r\nFormat profile                           :   \r\nFormat settings, CABAC                   : Yes\r\nFormat settings, ReFrames                : 4 frames\r\nCodec ID                                 : avc1\r\nCodec ID/Info                            : Advanced Video Coding\r\nDuration                                 : 1h 41mn\r\nBit rate                                 : 900 Kbps\r\nWidth                                    : 716 pixels\r\nHeight                                   : 574 pixels\r\nDisplay aspect ratio                     : 16:9\r\nFrame rate mode                          : Variable\r\nFrame rate                               : 25.000 fps\r\nMinimum frame rate                       : 17.829 fps\r\nMaximum frame rate                       : 25.000 fps\r\nColor space                              : YUV\r\nChroma subsampling                       : 4:2:0\r\nBit depth                                : 8 bits\r\nScan type                                : Progressive\r\nBits/(Pixel*Frame)                       : 0.088\r\nStream size                              : 653 MiB (90%)\r\nWriting library                          : x264 core 120\r\nEncoding settings                        : cabac=1 / ref=1 / deblock=1:0:0\r\nEncoded date                             : UTC 2016-08-06 16:59:59\r\nTagged date                              : UTC 2016-08-06 17:03:30\r\nColor range                              : Limited\r\nColor primaries                          : BT.601 NTSC\r\nTransfer characteristics                 : BT.709\r\nMatrix coefficients                      : BT.601\r\n\r\nAudio\r\nID                                       : 2\r\nFormat                                   : AAC\r\nFormat/Info                              : Advanced Audio Codec\r\nFormat profile                           : LC\r\nCodec ID                                 : 40\r\nDuration                                 : 1h 41mn\r\nBit rate mode                            : Variable\r\nBit rate                                 : 96.0 Kbps\r\nMaximum bit rate                         : 148 Kbps\r\nChannel(s)                               : 2 channels\r\nChannel positions                        : Front: L R\r\nSampling rate                            : 48.0 KHz\r\nCompression mode                         : Lossy\r\nStream size                              : 69.7 MiB (10%)\r\nTitle                                    : Stereo\r\nLanguage                                 : English","torrent":{"xt":"urn:btih:950f1ab5009a505b6e5be4671ec71424c62673d2","amp;dn":"Dalziel+%26amp%3B+Pascoe+S09","amp;tr":["udp%3A%2F%2Ftracker.leechers-paradise.org%3A6969","udp%3A%2F%2Fzer0day.ch%3A1337","udp%3A%2F%2Fopen.demonii.com%3A1337","udp%3A%2F%2Ftracker.coppersurfer.tk%3A6969","udp%3A%2F%2Fexodus.desync.com%3A6969"],"infoHash":"950f1ab5009a505b6e5be4671ec71424c62673d2","infoHashBuffer":{"type":"Buffer","data":[149,15,26,181,0,154,80,91,110,91,228,103,30,199,20,36,198,38,115,210]},"announce":[],"urlList":[]}}